# xmcd
#
# Track frame offsets:
#	182
#	16460
#	31647
#	44507
#	58877
#	75447
#	89850
#	107600
#	130465
#	145795
#	164455
#	178092
#	195497
#	209565
#	225782
#
# Disc length: 3172 seconds
#
# Revision: 1
# Processed by: cddbd v1.5.2PL0 Copyright (c) Steve Scherf et al.
# Submitted via: audiograbber 1.83.01
#
DISCID=ca0c620f
DTITLE=Various Artist - MM 6044
DYEAR=1900
DGENRE=Country
TTITLE0=Randy Travis - Before You Kill Us All
TTITLE1=Wynonna - Rock Bottom
TTITLE2=Shenandoah - If Bubba Can Dance
TTITLE3=Marty Stuart - Kiss Me I'm Gone
TTITLE4=Lorrie Morgan - My Night To Howl
TTITLE5=Doug Stone - Addicted To A Dollar
TTITLE6=John Berry - Your Love Amazes Me
TTITLE7=Patty Loveless - How Can I Help You Say Goodbye
TTITLE8=Mark Chesnutt - Woman, Sensuous Woman
TTITLE9=Tanya Tucker - You Just Watch Me
TTITLE10=George Strait - Love Bug
TTITLE11=Pam Tillis - We've Tried Everything
TTITLE12=Tim McGraw - Indian Outlaw
TTITLE13=Linda Davis - Company Time
TTITLE14=Tracy Lawrence - Somebody Paints The Wall
EXTD=
EXTT0=
EXTT1=
EXTT2=
EXTT3=
EXTT4=
EXTT5=
EXTT6=
EXTT7=
EXTT8=
EXTT9=
EXTT10=
EXTT11=
EXTT12=
EXTT13=
EXTT14=
PLAYORDER=
